<svg width="32" height="32" viewBox="0 0 32 32" xmlns="http://www.w3.org/2000/svg">
  <!-- Thick Blade -->
  <path d="M0 0l4 0 8 8 0 4-4 0L0 4 0 0z" fill="#00e5ff" />
  <path d="M2 2l2 0 4 4 0 2-2 0-4-4 0-2z" fill="#ffffff" />
  <!-- Thick Hilt -->
  <path d="M10 10l6-2 4 4-2 6-8-8z" fill="#333333" />
  <path d="M12 12l2-1 1 1-1 2-2-2z" fill="#ff0044" />
  <!-- Handle -->
  <path d="M14 14l8 8 2-2-8-8z" fill="#111111" />
  <!-- Click Particles -->
  <rect x="5" y="15" width="2" height="2" fill="#00e5ff" opacity="0.8" />
  <rect x="15" y="5" width="2" height="2" fill="#00e5ff" opacity="0.6" />
  <rect x="25" y="15" width="2" height="2" fill="#00e5ff" opacity="0.4" />
  <rect x="15" y="25" width="2" height="2" fill="#00e5ff" opacity="0.3" />
</svg>
